<svg xmlns="http://www.w3.org/2000/svg" viewBox="0 0 211.37 41.11"><defs><style>.cls-1{fill:#fff;stroke:#fff;stroke-miterlimit:10;stroke-width:3.58px;}.cls-2{fill:#ffd284;}</style></defs><g id="Слой_2" data-name="Слой 2"><g id="Layer_1" data-name="Layer 1"><rect class="cls-1" x="10.97" y="15.64" width="2.15" height="24.75" transform="translate(-16.28 16.72) rotate(-45)"/><rect class="cls-1" x="-0.33" y="10.97" width="24.75" height="2.15" transform="translate(-4.99 12.04) rotate(-45)"/><rect class="cls-1" x="198.25" y="0.72" width="2.15" height="24.75" transform="translate(49.12 144.78) rotate(-45)"/><rect class="cls-1" x="186.95" y="27.99" width="24.75" height="2.15" transform="translate(37.83 149.46) rotate(-45)"/><path class="cls-2" d="M44.77,8.85a17,17,0,0,1,6.58,1.38v4.32a11.22,11.22,0,0,0-6-1.68,6.08,6.08,0,0,0-4.12,1.41,5.45,5.45,0,0,0-1.85,3.77h8.71v3.71H39.36a5,5,0,0,0,1.93,3.57,7,7,0,0,0,4.49,1.34,11.34,11.34,0,0,0,3-.37,20.46,20.46,0,0,0,3-1.1v4.3a16.67,16.67,0,0,1-6.67,1.29,12.88,12.88,0,0,1-6-1.38A9.82,9.82,0,0,1,35,25.5a11.37,11.37,0,0,1-1.45-5.77,11.45,11.45,0,0,1,1.38-5.65,9.61,9.61,0,0,1,4-3.85A12.34,12.34,0,0,1,44.77,8.85Z"/><path class="cls-2" d="M84,9a11.33,11.33,0,0,1,1.21.07,5.85,5.85,0,0,1,.84.11V13.1h-1a2.58,2.58,0,0,0-1.32.3,2.67,2.67,0,0,0-.92,1.1l-1,2a5.89,5.89,0,0,1-3.51,3A5.77,5.77,0,0,1,81.1,21a16.35,16.35,0,0,1,2.56,3.64l3,5.7H80.56l-2.51-4.95a8.43,8.43,0,0,0-2.29-3.1,4.67,4.67,0,0,0-2.85-.88H72.6v8.93H67V9.25H72.6v8.44h.31A4.22,4.22,0,0,0,75.39,17a5.19,5.19,0,0,0,1.68-2.15l1.23-2.51a5.82,5.82,0,0,1,2.24-2.61A6.85,6.85,0,0,1,84,9Z"/><path class="cls-2" d="M95,9.25v8.26h9.12V9.25h5.56V30.38h-5.56V21.76H95v8.62H89.41V9.25Z"/><path class="cls-2" d="M120.49,9.25v13L132,9.25h3V30.38h-5.27V17.87L118.09,30.61h-2.87V9.25Z"/><path class="cls-2" d="M155.56,9.25v4.28h-9.43V30.38h-5.57V9.25Z"/><path class="cls-2" d="M166.47,8.85a9.7,9.7,0,0,1,6.22,1.73,5.85,5.85,0,0,1,2.15,4.83V25.75c0,.8.32,1.2,1,1.2A3,3,0,0,0,177,26.6a5.25,5.25,0,0,0,1.23-.81V29a10.32,10.32,0,0,1-5.33,1.79,4.29,4.29,0,0,1-2.3-.5,2.71,2.71,0,0,1-1.12-1.76,11,11,0,0,1-6.4,2.26,5.51,5.51,0,0,1-3.93-1.54,4.87,4.87,0,0,1-1.64-3.68,5.75,5.75,0,0,1,1.63-4.33,14,14,0,0,1,5.7-2.76l4.5-1.31v-1q0-3.1-3.75-3.1a9,9,0,0,0-3.83.88,11,11,0,0,0-3.46,2.6v-5A12.88,12.88,0,0,1,166.47,8.85Zm-3.4,15.88a2.42,2.42,0,0,0,.74,1.85,2.52,2.52,0,0,0,1.82.71,5.46,5.46,0,0,0,3.66-1.68V20.05a24.71,24.71,0,0,0-3.65,1.49A6.92,6.92,0,0,0,163.69,23,2.67,2.67,0,0,0,163.07,24.73Z"/></g></g></svg>