<svg xmlns="http://www.w3.org/2000/svg" viewBox="0 0 568.81 110.63"><defs><style>.cls-1,.cls-2{fill:#fff;}.cls-1{stroke:#fff;stroke-miterlimit:10;stroke-width:9.63px;}</style></defs><g id="Слой_2" data-name="Слой 2"><g id="Layer_1" data-name="Layer 1"><rect class="cls-1" x="29.51" y="42.09" width="5.79" height="66.6" transform="translate(-43.82 45) rotate(-45)"/><rect class="cls-1" x="-0.89" y="29.51" width="66.6" height="5.79" transform="translate(-13.42 32.41) rotate(-45)"/><rect class="cls-1" x="533.51" y="1.93" width="5.79" height="66.6" transform="translate(132.19 389.62) rotate(-45)"/><rect class="cls-1" x="503.1" y="75.32" width="66.6" height="5.79" transform="translate(101.8 402.21) rotate(-45)"/><path class="cls-2" d="M120.47,23.81a45.59,45.59,0,0,1,17.72,3.71V39.15A30.28,30.28,0,0,0,122,34.64a16.39,16.39,0,0,0-11.09,3.78,14.7,14.7,0,0,0-5,10.17h23.44v10H105.92a13.44,13.44,0,0,0,5.21,9.59q4.59,3.63,12.08,3.62a30.74,30.74,0,0,0,8-1,56,56,0,0,0,8.1-3V79.4a45,45,0,0,1-18,3.47,34.66,34.66,0,0,1-16.23-3.72,26.42,26.42,0,0,1-11-10.53,30.72,30.72,0,0,1-3.9-15.53A30.66,30.66,0,0,1,93.93,37.9a25.87,25.87,0,0,1,10.65-10.38A33.13,33.13,0,0,1,120.47,23.81Z"/><path class="cls-2" d="M226,24.17c.93,0,2,.06,3.26.18a20,20,0,0,1,2.28.31V35.25h-2.62a6.92,6.92,0,0,0-3.56.82,7.25,7.25,0,0,0-2.47,3l-2.61,5.36a16,16,0,0,1-9.44,8.09,15.45,15.45,0,0,1,7.43,4.14,43.43,43.43,0,0,1,6.88,9.81l8.09,15.34H216.8L210,68.44q-2.92-6-6.15-8.35a12.6,12.6,0,0,0-7.67-2.37h-.86v24h-15V24.9h15V47.61h.86a11.49,11.49,0,0,0,6.66-1.82A14.27,14.27,0,0,0,207.42,40l3.29-6.76a15.56,15.56,0,0,1,6-7A18.56,18.56,0,0,1,226,24.17Z"/><path class="cls-2" d="M255.58,24.9V47.13h24.54V24.9h15V81.77h-15V58.57H255.58v23.2h-15V24.9Z"/><path class="cls-2" d="M324.26,24.9V60L355.31,24.9h8V81.77H349.1V48.1L317.81,82.38h-7.74V24.9Z"/><path class="cls-2" d="M418.63,24.9V36.41H393.24V81.77h-15V24.9Z"/><path class="cls-2" d="M448,23.81q11,0,16.74,4.65t5.79,13V69.29c0,2.15.87,3.22,2.62,3.22a7.84,7.84,0,0,0,3.07-.94,13.61,13.61,0,0,0,3.32-2.16v8.65q-7.86,4.8-14.37,4.81A11.81,11.81,0,0,1,459,81.53a7.36,7.36,0,0,1-3-4.75q-8.59,6.09-17.23,6.09a14.93,14.93,0,0,1-10.57-4.14,13.14,13.14,0,0,1-4.41-9.93q0-7.36,4.38-11.63t15.35-7.43l12.11-3.53V43.59q0-8.34-10.11-8.34a24.07,24.07,0,0,0-10.28,2.38,29.05,29.05,0,0,0-9.32,7V31.17A34.56,34.56,0,0,1,448,23.81Zm-9.13,42.74a6.57,6.57,0,0,0,2,5,6.82,6.82,0,0,0,4.9,1.89q4.93,0,9.86-4.51V54a70.41,70.41,0,0,0-9.83,4,18,18,0,0,0-5.24,3.84A7.06,7.06,0,0,0,438.85,66.55Z"/></g></g></svg>