<svg xmlns="http://www.w3.org/2000/svg" viewBox="0 0 260.42 50.65"><defs><style>.cls-1,.cls-2{fill:#8e89c1;}.cls-1{stroke:#8e89c1;stroke-miterlimit:10;stroke-width:4.41px;}</style></defs><g id="Слой_2" data-name="Слой 2"><g id="Layer_1" data-name="Layer 1"><rect class="cls-1" x="13.51" y="19.27" width="2.65" height="30.49" transform="translate(-20.06 20.6) rotate(-45)"/><rect class="cls-1" x="-0.41" y="13.51" width="30.49" height="2.65" transform="translate(-6.15 14.84) rotate(-45)"/><rect class="cls-1" x="244.26" y="0.89" width="2.65" height="30.49" transform="translate(60.52 178.38) rotate(-45)"/><rect class="cls-1" x="230.34" y="34.49" width="30.49" height="2.65" transform="translate(46.61 184.14) rotate(-45)"/><path class="cls-2" d="M55.16,10.9a21,21,0,0,1,8.11,1.7v5.32a13.89,13.89,0,0,0-7.42-2.06,7.51,7.51,0,0,0-5.07,1.73,6.72,6.72,0,0,0-2.29,4.65H59.23v4.58H48.49a6.17,6.17,0,0,0,2.39,4.39,8.71,8.71,0,0,0,5.53,1.66,14.32,14.32,0,0,0,3.68-.46,26,26,0,0,0,3.71-1.36v5.3a20.58,20.58,0,0,1-8.23,1.59,15.91,15.91,0,0,1-7.42-1.7,12.07,12.07,0,0,1-5.06-4.82,14.06,14.06,0,0,1-1.79-7.11,14.12,14.12,0,0,1,1.7-7,11.88,11.88,0,0,1,4.88-4.75A15.22,15.22,0,0,1,55.16,10.9Z"/><path class="cls-2" d="M103.47,11.07a14.23,14.23,0,0,1,1.49.08,8.87,8.87,0,0,1,1,.14v4.85h-1.2a3.15,3.15,0,0,0-1.63.38A3.35,3.35,0,0,0,102,17.87l-1.19,2.45A7.32,7.32,0,0,1,96.52,24a7.15,7.15,0,0,1,3.41,1.89,20.29,20.29,0,0,1,3.15,4.49l3.7,7H99.26l-3.1-6.11a10.4,10.4,0,0,0-2.81-3.82,5.82,5.82,0,0,0-3.52-1.08h-.39v11H82.59v-26h6.85V21.8h.39A5.26,5.26,0,0,0,92.89,21,6.47,6.47,0,0,0,95,18.31l1.51-3.09A7.1,7.1,0,0,1,99.23,12,8.54,8.54,0,0,1,103.47,11.07Z"/><path class="cls-2" d="M117,11.4V21.58h11.24V11.4h6.85v26h-6.85V26.82H117V37.44h-6.85v-26Z"/><path class="cls-2" d="M148.46,11.4V27.46L162.67,11.4h3.66v26h-6.5V22L145.5,37.72H142V11.4Z"/><path class="cls-2" d="M191.66,11.4v5.27H180V37.44h-6.86v-26Z"/><path class="cls-2" d="M205.1,10.9c3.35,0,5.9.71,7.67,2.13a7.23,7.23,0,0,1,2.64,6V31.72c0,1,.4,1.48,1.2,1.48a3.53,3.53,0,0,0,1.41-.43,6.24,6.24,0,0,0,1.52-1v4a12.92,12.92,0,0,1-6.58,2.2,5.51,5.51,0,0,1-2.83-.61,3.39,3.39,0,0,1-1.38-2.18,13.56,13.56,0,0,1-7.89,2.79A6.78,6.78,0,0,1,196,36a6,6,0,0,1-2-4.54,7.09,7.09,0,0,1,2-5.32c1.34-1.31,3.68-2.44,7-3.41l5.55-1.61V20c0-2.55-1.55-3.82-4.63-3.82a11,11,0,0,0-4.71,1.09,13.31,13.31,0,0,0-4.27,3.2V14.27A15.83,15.83,0,0,1,205.1,10.9Zm-4.18,19.57a3,3,0,0,0,.91,2.28,3.1,3.1,0,0,0,2.24.87,6.81,6.81,0,0,0,4.52-2.06V24.7a31.37,31.37,0,0,0-4.51,1.84,8.25,8.25,0,0,0-2.39,1.75A3.2,3.2,0,0,0,200.92,30.47Z"/></g></g></svg>