<svg xmlns="http://www.w3.org/2000/svg" viewBox="0 0 21.89 14.61"><defs><style>.cls-1{fill:#ffd284;}</style></defs><g id="Слой_2" data-name="Слой 2"><g id="Layer_1" data-name="Layer 1"><path class="cls-1" d="M20.29,13.86C18.57,12,16.82,10.24,15.11,8.4c-.39-.41-.6-.35-.95,0-.8.84-1.69,1.59-2.45,2.45-.6.7-1,.6-1.57,0C9.36,10,8.48,9.23,7.69,8.39c-.41-.44-.64-.37-1,0C5,10.22,3.32,12,1.64,13.78c-.17.18-.49.33-.37.63s.46.17.7.17H20c.22,0,.51.09.63-.16S20.44,14,20.29,13.86Z"/><path class="cls-1" d="M1.81.8C4.64,3.59,7.48,6.37,10.3,9.18c.48.47.79.48,1.27,0C14.39,6.37,17.24,3.6,20.07.8c.17-.17.51-.31.39-.6S20,0,19.76,0H2.12c-.24,0-.58-.14-.7.16S1.64.63,1.81.8Z"/><path class="cls-1" d="M5.85,6.58C4.13,4.92,2.43,3.23.72,1.56.57,1.41.43,1.13.16,1.27S0,1.68,0,1.9C0,3.66,0,5.41,0,7.17v5.45c0,.19-.08.45.13.56s.4-.15.55-.3c1.72-1.82,3.44-3.65,5.17-5.46C6.19,7.09,6.17,6.9,5.85,6.58Z"/><path class="cls-1" d="M21.88,7.28c0-1.81,0-3.63,0-5.44,0-.21.1-.5-.19-.6s-.35.15-.49.29C19.44,3.24,17.7,5,16,6.66c-.3.29-.3.47,0,.77,1.76,1.82,3.5,3.66,5.26,5.48.14.16.28.43.55.28s.13-.37.13-.56C21.88,10.85,21.88,9.06,21.88,7.28Z"/></g></g></svg>