<svg xmlns="http://www.w3.org/2000/svg" viewBox="0 0 44.87 44.87"><defs><style>.cls-1{fill:#ffd284;}</style></defs><g id="Слой_2" data-name="Слой 2"><g id="Layer_1" data-name="Layer 1"><path class="cls-1" d="M44.87,22.45A22.44,22.44,0,1,1,22.45,0,22.44,22.44,0,0,1,44.87,22.45ZM29,17.94h-4.1c-.33,0-.34,0-.34-.32,0-.81,0-1.61,0-2.42a3.51,3.51,0,0,1,.06-.79.89.89,0,0,1,.84-.76,5.09,5.09,0,0,1,.56,0h2.78c.13,0,.21,0,.2-.19V8.75c0-.11-.06-.15-.17-.15h-4A9.11,9.11,0,0,0,22.21,9,4.39,4.39,0,0,0,19,12.28a7.64,7.64,0,0,0-.19,1.78v3.47a2.44,2.44,0,0,1,0,.27.12.12,0,0,1-.14.14H16.08c-.26,0-.27,0-.27.24V22.6c0,.24,0,.25.27.25h2.25c.53,0,.48-.07.48.47V37.06a.14.14,0,0,0,.15.14h5.23c.42,0,.39,0,.39-.39V23c0-.12,0-.19.17-.18h3.51c.34,0,.34,0,.37-.35,0-.05,0-.11,0-.16l.18-2C28.89,19.49,29,18.74,29,17.94Z"/></g></g></svg>