<svg xmlns="http://www.w3.org/2000/svg" viewBox="0 0 92.25 141.16"><defs><style>.cls-1{fill:#8e89c1;}</style></defs><g id="Слой_2" data-name="Слой 2"><g id="Layer_1" data-name="Layer 1"><path class="cls-1" d="M29.87,0a3.74,3.74,0,0,1,1.57,2.34c2.08,8.45,4.21,16.9,6.31,25.35.42,1.68-.25,2.93-1.68,3.15s-2.26-.51-2.65-2.06L29.89,14.69c-.91-3.64-1.75-7.3-2.75-10.91C26.7,2.2,26.87,1,28.22,0Z"/><path class="cls-1" d="M69.4,74.17c3.91,1.11,6.5,3.47,7.55,7.36a8.41,8.41,0,0,1,0,4.64c-.19.66,0,.88.64,1a8.89,8.89,0,0,1,6.93,10.39c-.09.66.11.76.64.94a10,10,0,0,1,4.27,16.51c-3.46,3.83-7,7.65-10.41,11.5-7.47,8.35-16.75,13.32-27.9,14.38-12.36,1.18-23.27-2.21-31.93-11.46-5.45-5.81-8.29-12.89-9.53-20.67A52.28,52.28,0,0,1,9,98.51a23.39,23.39,0,0,0-3-12,67.67,67.67,0,0,0-3.88-6.29,10.93,10.93,0,0,1-2-8C1,66.25,9,60.79,15.92,66.86A34.2,34.2,0,0,1,23.28,76,29.47,29.47,0,0,0,26,80.06a3.41,3.41,0,0,0,4,1.16,16.79,16.79,0,0,0,4.93-2.65A153.85,153.85,0,0,0,51.77,63.78c5.09-4.93,10-10,14.88-15.2,2.81-3,6.23-4.16,10.22-3a10,10,0,0,1,4.24,16.8q-5.39,5.43-10.79,10.83Zm8.78,46.52c-.18-.06-.35-.14-.52-.19-4-1.19-7.15-5.3-6.87-9.48,0-.74-.34-.75-.9-.83-5.62-.81-9.38-5.46-8.67-10.86.12-.92-.14-1.07-.89-1.27a9.5,9.5,0,0,1-7.1-6.67,9.32,9.32,0,0,1,2.5-9.93q11-11.07,22.12-22.09a5.51,5.51,0,0,0,1.77-5.1,5.32,5.32,0,0,0-3.94-4.38,5.42,5.42,0,0,0-5.75,1.71C64.55,57.35,59.06,63,53.38,68.46A154.8,154.8,0,0,1,38.63,81.38c-2.58,1.92-5.21,3.78-8.46,4.4-.49.09-.56.25-.43.69a13.21,13.21,0,0,1,.35,4.2,13.78,13.78,0,0,1-2.49,7.22,2.16,2.16,0,0,1-3.08.7,2.25,2.25,0,0,1-.66-3.1c.33-.62.72-1.22,1-1.86,1.34-3.28,1.31-6.5-1-9.29A53.26,53.26,0,0,1,18.77,77a26.07,26.07,0,0,0-6.08-7.11,5,5,0,0,0-8.13,2.85,6.2,6.2,0,0,0,1.23,4.87,67.67,67.67,0,0,1,4,6.37,28.31,28.31,0,0,1,3.48,10.5c.35,3.32,0,6.65.36,10a39.8,39.8,0,0,0,4.53,16c2.2,3.94,5.83,5.78,10.17,6.22,3.55.36,6.44-1.28,9-3.55a31.81,31.81,0,0,0,4-4.47,2.16,2.16,0,0,1,3.12-.48,2.2,2.2,0,0,1,.42,3.13c-.28.42-.6.82-.92,1.22-3.1,3.86-6.67,7-11.65,8.25a24,24,0,0,1-4,.43C41.85,140.46,64.37,138.7,78.18,120.69ZM67.8,78.44a5.28,5.28,0,0,0-4,1.31c-1.7,1.67-3.42,3.33-5.06,5.07a5.44,5.44,0,0,0,2.54,8.93,3.47,3.47,0,0,0,3-.13,45.31,45.31,0,0,0,7-5.85,5.34,5.34,0,0,0,1-6.2A5.11,5.11,0,0,0,67.8,78.44ZM80.22,96a4.51,4.51,0,0,0-7.32-3.53c-1.85,1.5-3.7,3-5.56,4.48A4.11,4.11,0,0,0,66,98.77a5.25,5.25,0,0,0,4.82,7,2.92,2.92,0,0,0,2.25-.76c1.92-2,3.87-3.87,5.8-5.82A4.32,4.32,0,0,0,80.22,96Zm7.51,11.94a5.51,5.51,0,0,0-5.37-5.35,1.21,1.21,0,0,0-1,.4c-1.62,1.64-3.29,3.23-4.87,4.91a4.65,4.65,0,0,0-.93,5.13,5.05,5.05,0,0,0,4.14,3.39,3.76,3.76,0,0,0,3.92-1.48c.82-1.09,1.83-2,2.74-3A5.5,5.5,0,0,0,87.73,107.89Z"/><path class="cls-1" d="M1.86,31.66A2.11,2.11,0,0,1,3,29.6a2.18,2.18,0,0,1,2.33.13,5.29,5.29,0,0,1,.78.72L24.64,49a3.16,3.16,0,0,1,.93,1.19,2.22,2.22,0,0,1-3.29,2.67,4.66,4.66,0,0,1-.78-.7q-9.3-9.3-18.61-18.61C2.32,33,1.79,32.39,1.86,31.66Z"/><path class="cls-1" d="M65.39,27.19v13c0,1.71-.85,2.75-2.2,2.74s-2.25-1.1-2.25-2.75V14a2.42,2.42,0,0,1,1.46-2.56,2.07,2.07,0,0,1,2.28.42,2.43,2.43,0,0,1,.72,2C65.38,18.34,65.39,22.76,65.39,27.19Z"/><path class="cls-1" d="M49.82,45.62c-1,1-1.85,2-2.77,2.81A1.53,1.53,0,0,0,46.54,50c.24,1.22.43,2.45.69,3.94-1.28-.66-2.42-1.2-3.5-1.82a1.47,1.47,0,0,0-1.71,0c-1.07.63-2.2,1.16-3.51,1.85.24-1.45.4-2.71.68-3.95a1.45,1.45,0,0,0-.49-1.54c-.89-.87-1.72-1.8-2.65-2.78a12.22,12.22,0,0,1,3-.49,2.33,2.33,0,0,0,2.3-1.58,30.83,30.83,0,0,1,1.5-3.1c.65,1.31,1.26,2.4,1.74,3.54a1.55,1.55,0,0,0,1.38,1C47.22,45.22,48.45,45.42,49.82,45.62Z"/><path class="cls-1" d="M22.32,16.18c-2,2.28-2,4.35.05,6.35-1.45.2-2.65-.57-3.63-.13s-1.65,1.49-2.67,2.48c.1-2.75-1-4.53-4-5,2.71-.87,4-2.48,3.5-5.35l.33,0a11.39,11.39,0,0,1,1.23,1.17,2.35,2.35,0,0,0,3,.85A12.61,12.61,0,0,1,22.32,16.18Z"/><path class="cls-1" d="M52.92,11.92a22.33,22.33,0,0,1-.52,2.44,1.72,1.72,0,0,0,.6,2.05A21.15,21.15,0,0,1,54.53,18L49.06,21.7c-.37-2.74-2-4-4.88-3.93,2.42-1.45,3.25-3.36,2.09-6l.33,0c.69.39,1.41.75,2.07,1.2a1.58,1.58,0,0,0,1.92.07A24.63,24.63,0,0,1,52.92,11.92Z"/></g></g></svg>