<svg xmlns="http://www.w3.org/2000/svg" viewBox="0 0 44.86 44.87"><defs><style>.cls-1{fill:#ffd284;}</style></defs><g id="Слой_2" data-name="Слой 2"><g id="Layer_1" data-name="Layer 1"><path class="cls-1" d="M44.86,22.44A22.43,22.43,0,1,1,22.48,0,22.43,22.43,0,0,1,44.86,22.44ZM22.46,35.85h3.81a18.57,18.57,0,0,0,3.07-.21,7.36,7.36,0,0,0,3.08-1.22,7,7,0,0,0,2.83-4.94,23.77,23.77,0,0,0,.16-2.67c.05-2,0-4,0-6.06,0-1.28,0-2.56-.13-3.83a8,8,0,0,0-.85-3.18,6.68,6.68,0,0,0-4.57-3.47A15.15,15.15,0,0,0,26.67,10c-2.47-.05-4.94,0-7.41,0a25.06,25.06,0,0,0-3.57.2,7.46,7.46,0,0,0-3,1.09A6.91,6.91,0,0,0,9.67,16.3a22.3,22.3,0,0,0-.17,2.94c0,2.1,0,4.2,0,6.29a31.43,31.43,0,0,0,.2,4,7.39,7.39,0,0,0,1,2.87,6.7,6.7,0,0,0,4.3,3.11,14,14,0,0,0,3,.33C19.42,35.88,20.94,35.89,22.46,35.85Z"/><path class="cls-1" d="M11.83,22.86c0-1.49,0-3,.05-4.47A11,11,0,0,1,12.13,16a4.36,4.36,0,0,1,3-3.27,6.24,6.24,0,0,1,1.49-.29c1-.09,2-.11,3.07-.12q3.06,0,6.13,0a19.19,19.19,0,0,1,3,.18,5,5,0,0,1,2.42,1,4.58,4.58,0,0,1,1.61,2.85,19.22,19.22,0,0,1,.2,3.13c0,1.48,0,3,0,4.43s0,3-.09,4.54a7.85,7.85,0,0,1-.23,1.53,4.37,4.37,0,0,1-3.46,3.31,8.43,8.43,0,0,1-1.58.2c-1,0-2,.08-2.94.07-2.08,0-4.15,0-6.22,0a13.09,13.09,0,0,1-2.93-.25A4.35,4.35,0,0,1,12.16,30a7.55,7.55,0,0,1-.23-1.5C11.81,26.59,11.84,24.72,11.83,22.86Zm10.63,6.7a6.67,6.67,0,1,0-6.67-6.63A6.63,6.63,0,0,0,22.46,29.56ZM30.94,16a1.56,1.56,0,1,0-3.12,0,1.56,1.56,0,1,0,3.12,0Z"/><path class="cls-1" d="M22.48,18.59a4.32,4.32,0,1,1-4.33,4.29A4.31,4.31,0,0,1,22.48,18.59Z"/></g></g></svg>