<svg xmlns="http://www.w3.org/2000/svg" viewBox="0 0 71.76 109.8"><defs><style>.cls-1{fill:#a2d6b7;}</style></defs><g id="Слой_2" data-name="Слой 2"><g id="иконки"><path class="cls-1" d="M23.23,0a2.91,2.91,0,0,1,1.22,1.82q2.44,9.86,4.91,19.71c.33,1.32-.19,2.28-1.31,2.46s-1.75-.4-2.06-1.6q-1.36-5.49-2.74-11c-.7-2.83-1.36-5.67-2.14-8.48A2.4,2.4,0,0,1,22,0Z"/><path class="cls-1" d="M54,57.69a7.82,7.82,0,0,1,5.88,5.73,6.57,6.57,0,0,1,0,3.6c-.15.52,0,.69.5.82a6.9,6.9,0,0,1,5.39,8.08c-.07.52.09.6.5.74a7.75,7.75,0,0,1,3.32,12.83c-2.7,3-5.42,6-8.1,9a32.48,32.48,0,0,1-21.7,11.19c-9.62.91-18.1-1.72-24.84-8.92A29.66,29.66,0,0,1,7.52,84.63a41.29,41.29,0,0,1-.54-8,18.22,18.22,0,0,0-2.31-9.36,55.88,55.88,0,0,0-3-4.89A8.47,8.47,0,0,1,.09,56.15,7.34,7.34,0,0,1,12.39,52a26.73,26.73,0,0,1,5.72,7.06,23.52,23.52,0,0,0,2.1,3.2,2.67,2.67,0,0,0,3.11.91,13.1,13.1,0,0,0,3.84-2.07,120.3,120.3,0,0,0,13.11-11.5c4-3.84,7.79-7.81,11.57-11.82a7.78,7.78,0,0,1,13.52,3.89,7.5,7.5,0,0,1-2.27,6.83q-4.19,4.22-8.39,8.42C54.47,57.16,54.25,57.41,54,57.69Zm6.83,36.19a3.39,3.39,0,0,0-.41-.15,7.61,7.61,0,0,1-5.34-7.37c0-.58-.26-.59-.69-.65a7.55,7.55,0,0,1-6.75-8.45c.09-.71-.11-.83-.69-1a7.42,7.42,0,0,1-5.53-5.2,7.27,7.27,0,0,1,2-7.72q8.58-8.61,17.2-17.18a4.28,4.28,0,0,0,1.38-4,4.12,4.12,0,0,0-3.07-3.4,4.2,4.2,0,0,0-4.47,1.33C50.21,44.61,45.94,49,41.52,53.25a120.42,120.42,0,0,1-11.47,10c-2,1.49-4.05,2.94-6.58,3.42-.38.07-.44.19-.34.54a10,10,0,0,1,.27,3.26,10.58,10.58,0,0,1-1.93,5.62,1.69,1.69,0,0,1-2.4.55,1.75,1.75,0,0,1-.51-2.41c.26-.49.56-1,.77-1.46,1-2.54,1-5-.79-7.22a41.8,41.8,0,0,1-3.94-5.69,20.23,20.23,0,0,0-4.73-5.53,3.84,3.84,0,0,0-6.32,2.21,4.79,4.79,0,0,0,1,3.79,54,54,0,0,1,3.09,5,22,22,0,0,1,2.71,8.17c.27,2.58,0,5.17.28,7.75A31,31,0,0,0,14.1,93.72,9.61,9.61,0,0,0,22,98.56c2.77.28,5-1,7-2.77a24.26,24.26,0,0,0,3.09-3.47A1.66,1.66,0,0,1,34.54,92a1.71,1.71,0,0,1,.33,2.43c-.22.33-.47.64-.71,1-2.41,3-5.19,5.48-9.07,6.42a19,19,0,0,1-3.12.33C32.55,109.25,50.07,107.89,60.81,93.88ZM52.74,61a4.11,4.11,0,0,0-3.14,1c-1.32,1.3-2.66,2.6-3.93,3.94a4.23,4.23,0,0,0,2,7,2.73,2.73,0,0,0,2.31-.1,35.55,35.55,0,0,0,5.45-4.55,4.16,4.16,0,0,0,.81-4.82A4,4,0,0,0,52.74,61ZM62.4,74.64a3.32,3.32,0,0,0-2-3.19,3.27,3.27,0,0,0-3.66.43c-1.44,1.17-2.88,2.34-4.34,3.49a3.27,3.27,0,0,0-1,1.46,4.1,4.1,0,0,0,3.76,5.46,2.26,2.26,0,0,0,1.75-.6c1.49-1.52,3-3,4.51-4.52A3.44,3.44,0,0,0,62.4,74.64Zm5.84,9.28a4.29,4.29,0,0,0-4.18-4.16.92.92,0,0,0-.8.31c-1.26,1.28-2.56,2.51-3.79,3.82a3.62,3.62,0,0,0-.72,4A3.94,3.94,0,0,0,62,90.52a3,3,0,0,0,3-1.15c.63-.85,1.42-1.59,2.13-2.38A4.28,4.28,0,0,0,68.24,83.92Z"/><path class="cls-1" d="M1.45,24.63A1.65,1.65,0,0,1,2.33,23a1.71,1.71,0,0,1,1.82.11,3.88,3.88,0,0,1,.6.55L19.16,38.1a2.59,2.59,0,0,1,.73.92,1.73,1.73,0,0,1-2.56,2.08,3.87,3.87,0,0,1-.61-.54L2.25,26.08C1.81,25.64,1.39,25.2,1.45,24.63Z"/><path class="cls-1" d="M50.86,21.15c0,3.38,0,6.75,0,10.13,0,1.34-.66,2.14-1.71,2.14s-1.75-.86-1.75-2.14V10.91a1.9,1.9,0,0,1,1.13-2,1.61,1.61,0,0,1,1.78.33,1.88,1.88,0,0,1,.56,1.58Q50.86,16,50.86,21.15Z"/><path class="cls-1" d="M38.75,35.48c-.79.81-1.44,1.54-2.15,2.19a1.18,1.18,0,0,0-.4,1.21c.18.95.34,1.91.54,3.06-1-.51-1.88-.92-2.72-1.41a1.16,1.16,0,0,0-1.34,0C31.85,41,31,41.42,30,42c.19-1.14.32-2.12.53-3.08a1.13,1.13,0,0,0-.38-1.2c-.69-.67-1.34-1.4-2.06-2.16a9.78,9.78,0,0,1,2.34-.38,1.8,1.8,0,0,0,1.79-1.22c.28-.79.73-1.52,1.16-2.42.51,1,1,1.87,1.36,2.75a1.2,1.2,0,0,0,1.08.81C36.73,35.18,37.69,35.33,38.75,35.48Z"/><path class="cls-1" d="M17.36,12.58c-1.58,1.78-1.53,3.39,0,5-1.13.15-2.06-.45-2.82-.1a9.28,9.28,0,0,0-2.08,1.93c.08-2.15-.79-3.53-3.08-3.9,2.11-.67,3.14-1.93,2.72-4.16l.26,0a9.12,9.12,0,0,1,1,.9,1.83,1.83,0,0,0,2.36.67A9.06,9.06,0,0,1,17.36,12.58Z"/><path class="cls-1" d="M41.17,9.27a17.24,17.24,0,0,1-.41,1.9,1.34,1.34,0,0,0,.46,1.59c.43.38.8.82,1.2,1.25l-4.26,2.87c-.29-2.14-1.58-3.08-3.8-3.06,1.89-1.13,2.53-2.61,1.63-4.66l.25,0c.54.3,1.1.58,1.61.93a1.25,1.25,0,0,0,1.5.06A18.55,18.55,0,0,1,41.17,9.27Z"/></g></g></svg>