<svg xmlns="http://www.w3.org/2000/svg" viewBox="0 0 65.47 79.12"><defs><style>.cls-1{fill:#a2d6b7;}</style></defs><g id="Слой_2" data-name="Слой 2"><g id="иконки"><path class="cls-1" d="M0,49.87V25.19a6.58,6.58,0,0,1,.22-2.08A3.31,3.31,0,0,1,3,20.67a46,46,0,0,1,6.21-.1c.86,0,1.18-.25,1.15-1.14-.06-1.77,0-3.54,0-5.3a3.59,3.59,0,0,1,3.81-3.85c1.8,0,3.6,0,5.4,0,.78,0,1.08-.2,1.06-1-.06-1.8,0-3.6,0-5.4A3.6,3.6,0,0,1,24.44,0c9.41,0,18.83,0,28.24,0a3.12,3.12,0,0,1,2,.76A68.51,68.51,0,0,1,62.29,8c.87.93,1.66,1.94,2.49,2.91a3,3,0,0,1,.69,2q0,20.7,0,41.4c0,2.82-1.42,4.2-4.24,4.24-1.67,0-3.35,0-5,0-.82,0-1.15.21-1.11,1.08.06,1.77,0,3.53,0,5.3a3.6,3.6,0,0,1-3.85,3.9c-1.7,0-3.41,0-5.12,0-1.27,0-1.27,0-1.27,1.24,0,1.73,0,3.47,0,5.21a3.58,3.58,0,0,1-3.77,3.8q-18.66,0-37.3,0A3.47,3.47,0,0,1,.09,75.83,11.58,11.58,0,0,1,0,74.28Q0,62.07,0,49.87Zm3.71-.08q0,12.24,0,24.5c0,.7.07,1.13,1,1.13q17.74,0,35.48,0c.74,0,1-.26,1-1q0-19.38,0-38.77c0-.77-.29-1-1-1-2.37,0-4.75,0-7.13,0-1.79,0-2.48-.69-2.49-2.5,0-2.25-.05-4.51,0-6.76,0-.95-.3-1.18-1.2-1.17-8.14,0-16.28,0-24.41,0-1.21,0-1.21,0-1.21,1.21Zm47.8-5V25.6c0-1.19,0-1.2-1.23-1.2-2.29,0-4.57,0-6.86,0-2,0-2.64-.68-2.64-2.64,0-2.29,0-4.57,0-6.86,0-.66-.23-.91-.91-.91q-12.52,0-25,0c-.69,0-.9.26-.88.92,0,1.49.06,3,0,4.48,0,.94.3,1.18,1.2,1.18,5.52,0,11,0,16.55,0a3.6,3.6,0,0,1,2.44.81A71.92,71.92,0,0,1,44,31.21a3.59,3.59,0,0,1,.86,2.51c0,10.08,0,20.17,0,30.25,0,.94.27,1.22,1.19,1.18,1.37-.07,2.74,0,4.11,0s1.37,0,1.37-1.33Zm3.59-6.42c0,5.18,0,10.36,0,15.54,0,.68.15,1,.92,1,1.61,0,3.22,0,4.84,0,.75,0,.92-.29.92-1q0-19.47,0-38.93c0-.79-.29-1-1-1-2.4,0-4.81,0-7.22,0-1.91,0-2.51-.59-2.52-2.5C51,9.25,51,7,51,4.68c0-.71-.25-1-1-1q-12.37,0-24.77,0c-.7,0-1,.25-1,1,0,1.46,0,2.93,0,4.39,0,1.2,0,1.21,1.24,1.21,5.42,0,10.84,0,16.26,0a4.09,4.09,0,0,1,2.84,1A74.77,74.77,0,0,1,54.38,21a3.28,3.28,0,0,1,.74,2.18C55.09,28.26,55.1,33.31,55.1,38.37Zm-.37-32.6v4c0,.34.09.62.49.63H59.4ZM44.5,16.11v4c0,.27.11.51.4.51h4.15ZM38.71,30.94l-4.46-4.43v3.86c0,.44.27.57.66.57Z"/></g></g></svg>