<svg xmlns="http://www.w3.org/2000/svg" viewBox="0 0 87.99 88.12"><defs><style>.cls-1{fill:#a2d6b7;}</style></defs><g id="Слой_2" data-name="Слой 2"><g id="иконки"><path class="cls-1" d="M0,52.53V27.37A10.28,10.28,0,0,1,8.41,17.2,11.06,11.06,0,0,1,10.48,17c1.91,0,3.81-.05,5.71,0,.72,0,.85-.22.83-.87,0-1.88,0-3.76,0-5.63A10.32,10.32,0,0,1,27.56,0H77.5A10.25,10.25,0,0,1,88,10.47v50A10.3,10.3,0,0,1,79.19,71a11.41,11.41,0,0,1-1.85.08c-1.9,0-3.81,0-5.71,0-.5,0-.66.14-.66.65,0,2,0,4,0,5.95a10.33,10.33,0,0,1-8.32,10.26,10.5,10.5,0,0,1-2.3.23H10.58a10.35,10.35,0,0,1-10.52-9A12,12,0,0,1,0,77.38Zm80.4-17V10.65a2.75,2.75,0,0,0-3.05-3.06H27.65a2.78,2.78,0,0,0-3.11,3.08c0,1.83,0,3.66,0,5.48,0,.73.22.87.9.87q17.17,0,34.34,0a19.75,19.75,0,0,1,2.31.12A10.36,10.36,0,0,1,70.87,26,57.4,57.4,0,0,1,71,32q0,15.24,0,30.49c0,.65.13.88.84.86,2-.06,3.9,0,5.86,0a2.55,2.55,0,0,0,1.65-.53,3,3,0,0,0,1.09-2.59Q80.4,47.86,80.4,35.5ZM23.77,48.75h0c-2.36,0-4.73,0-7.09,0a3.69,3.69,0,0,0-3.45,4.75,3.78,3.78,0,0,0,3.94,2.8c4.55,0,9.11,0,13.66,0,.66,0,.87.14.86.84,0,4.55,0,9.1,0,13.66a3.84,3.84,0,0,0,1.62,3.4,3.64,3.64,0,0,0,3.94.29,3.56,3.56,0,0,0,2-3.38c0-4.63,0-9.27,0-13.89,0-.77.23-.93,1-.92,4.53,0,9,0,13.58,0A3.88,3.88,0,0,0,56.93,55a3.64,3.64,0,0,0,.6-4.1,3.49,3.49,0,0,0-3.36-2.17c-4.63,0-9.26,0-13.89,0-1,0-1,0-1-1,0-4.63,0-9.26,0-13.89a3.78,3.78,0,1,0-7.55.3c0,4.63,0,9.26,0,13.89,0,.58-.16.74-.74.73C28.56,48.73,26.17,48.75,23.77,48.75Z"/></g></g></svg>