<svg xmlns="http://www.w3.org/2000/svg" viewBox="0 0 109.93 109.9"><defs><style>.cls-1{fill:#a2d6b7;}</style></defs><g id="Слой_2" data-name="Слой 2"><g id="иконки"><path class="cls-1" d="M33.44,42.66c5.76,0,11.52,0,17.28,0,.81,0,1.12-.19,1.1-1.06,0-3,0-6,0-9,0-.72-.25-1-.94-1.18A16,16,0,0,1,39,14.69C39.57,6.67,46.63.2,54.66,0A16.17,16.17,0,0,1,70.92,14.51,15.94,15.94,0,0,1,60.16,31a1.59,1.59,0,0,0-1.32,1.86c.08,2.83,0,5.67,0,8.5,0,1.31,0,1.32,1.28,1.32H93.7a3.46,3.46,0,0,1,3.77,3.66c0,3.65,0,7.31,0,11,0,.75.26,1,1,1.26C105,60.68,109,65.19,109.8,72A15.83,15.83,0,0,1,96.36,89.6a15.93,15.93,0,0,1-7.12-31A1.39,1.39,0,0,0,90.43,57c-.06-2.1,0-4.21,0-6.31,0-.7-.19-1-.93-1q-14.85,0-29.71,0c-.76,0-.92.29-.92,1q0,13.44,0,26.88c0,.83.39,1.06,1.06,1.3A15.6,15.6,0,0,1,70.59,90.71,16,16,0,1,1,50.81,78.58a1.13,1.13,0,0,0,1-1.3q0-13.26,0-26.51c0-.88-.3-1.07-1.11-1.06q-15,0-30.08,0c-.82,0-1.13.21-1.1,1.08,0,2.16,0,4.32,0,6.49a1.12,1.12,0,0,0,.94,1.28c6.1,2,9.91,6.12,11.21,12.44A16,16,0,1,1,11.22,58.65,1.42,1.42,0,0,0,12.4,57c-.05-3.29,0-6.58,0-9.88a5.61,5.61,0,0,1,.35-2.33,3.48,3.48,0,0,1,3.43-2.12ZM55,24.8A8.85,8.85,0,1,0,46.08,16,8.78,8.78,0,0,0,55,24.8ZM7.11,73.85a8.89,8.89,0,0,0,17.77,0A9,9,0,0,0,16,64.9,8.85,8.85,0,0,0,7.11,73.85Zm95.74,0A8.89,8.89,0,1,0,94,82.71,8.79,8.79,0,0,0,102.85,73.8ZM55,85.14A8.85,8.85,0,1,0,63.88,94,8.77,8.77,0,0,0,55,85.14Z"/></g></g></svg>