<svg xmlns="http://www.w3.org/2000/svg" viewBox="0 0 96.07 98.9"><defs><style>.cls-1{fill:#a2d6b7;}</style></defs><g id="Слой_2" data-name="Слой 2"><g id="иконки"><path class="cls-1" d="M68.85,98.88c-4.26.08-8.53-.17-12.79-.2a6.44,6.44,0,0,1-6.24-6.2c0-4.11,0-8.23,0-12.34a6.48,6.48,0,0,1,3.8-6A1.15,1.15,0,0,0,54.41,73c0-2.83.07-5.67.18-8.5A8.4,8.4,0,0,1,57,58.8c1.9-2,3.86-3.89,5.81-5.82a10.21,10.21,0,0,1,6.36-2.65A3,3,0,0,0,71,49.4c2.24-2.28,4.53-4.51,6.77-6.8a6.46,6.46,0,0,1,3.84-2.1c.56-.07.75-.37.9-.85a20.82,20.82,0,0,0,.83-8.38,15.39,15.39,0,0,1,.1-4.74,7.86,7.86,0,0,1,8.21-6.21,4.49,4.49,0,0,1,3.95,4.24c.16,4.32.2,8.64.41,13,.18,3.83-.6,7.57-.88,11.35a17,17,0,0,1-1.58,6.52,15.76,15.76,0,0,1-3,4.13l-9.18,9.17a9.72,9.72,0,0,0-2.51,4.5,1,1,0,0,0,.52,1.27A6.63,6.63,0,0,1,83,80.77c0,4-.09,8-.18,12a6.53,6.53,0,0,1-6.22,6.14H68.85ZM58,69.67c0,1,0,2,0,3,0,.56.13.85.76.85,5.24,0,10.48,0,15.71.18a.83.83,0,0,0,1-.81,13.16,13.16,0,0,1,3.9-7.08c3-2.94,5.9-5.91,8.85-8.85a10.21,10.21,0,0,0,3.2-6.13c.49-4.55,1.37-9.07,1.13-13.69-.2-4-.26-8-.39-12,0-1.23-.45-1.55-1.68-1.32a4.24,4.24,0,0,0-3.55,4.25A39.65,39.65,0,0,0,87,33.23c.36,2.59-.51,5-1.11,7.44A1.19,1.19,0,0,0,86.26,42a5.79,5.79,0,0,1,0,8.67c-3,3-6,6-9,9-.94.94-2.07,1.06-2.82.33s-.65-1.84.31-2.81l.58-.59c2.82-2.82,5.63-5.64,8.47-8.46a2.42,2.42,0,0,0,.89-2.09,2.18,2.18,0,0,0-1.48-1.93,2.31,2.31,0,0,0-2.51.61c-2.26,2.27-4.6,4.45-6.75,6.82a6.88,6.88,0,0,1-4.73,2.36,5.86,5.86,0,0,0-3.82,1.54c-1.94,1.94-3.89,3.87-5.81,5.82a5,5,0,0,0-1.44,3.46C58.07,66.38,57.92,68,58,69.67Zm7,7.37c-2.74,0-5.48,0-8.22,0a3,3,0,0,0-3.28,3.23c0,.91,0,1.82,0,2.74,0,2.92-.13,5.84-.14,8.77a3.12,3.12,0,0,0,3.09,3.36c6.51.33,13,0,19.55.28A3.24,3.24,0,0,0,79.36,92c.12-3.84,0-7.67.09-11.51a3,3,0,0,0-3.21-3.28C72.47,77.1,68.69,77.11,64.91,77Z"/><path class="cls-1" d="M27.09,98.88c-2.47,0-4.94,0-7.4,0a6.52,6.52,0,0,1-6.44-6.39c-.06-3.93-.13-7.86-.17-11.79a6.57,6.57,0,0,1,3.56-6.23,1,1,0,0,0,.53-1.34,9.74,9.74,0,0,0-2.53-4.48c-3.05-3-6.07-6.08-9.12-9.11A15.44,15.44,0,0,1,1,49.45c-.2-2.64-.55-5.26-.85-7.89a63.58,63.58,0,0,1,0-7.93c0-2.8.23-5.6.28-8.4.07-3.59,2.7-5.63,6.21-4.75a7.93,7.93,0,0,1,6.16,7.84,35,35,0,0,1-.16,3.83,20,20,0,0,0,.94,7.65.8.8,0,0,0,.74.67,7,7,0,0,1,4.14,2.3c2,2.08,4.13,4.06,6.11,6.17a4.65,4.65,0,0,0,3.08,1.54A9.77,9.77,0,0,1,34,53.66c1.55,1.64,3.18,3.2,4.78,4.79a9.19,9.19,0,0,1,2.81,6.72c0,2.64.12,5.29.16,7.94a1,1,0,0,0,.62,1,6.7,6.7,0,0,1,3.93,6.39q.06,5.8,0,11.61a6.5,6.5,0,0,1-6.59,6.6C35.49,98.7,31.29,99,27.09,98.88ZM38.14,69.82c0-1.65-.12-3.29-.16-4.93a5.29,5.29,0,0,0-1.65-3.83c-1.47-1.47-3-2.88-4.38-4.41a7.62,7.62,0,0,0-5.44-2.8,5.93,5.93,0,0,1-4.16-2.13c-2.21-2.38-4.59-4.63-6.88-6.94a2.37,2.37,0,0,0-2.42-.7,2.19,2.19,0,0,0-1.6,1.82,2.35,2.35,0,0,0,.83,2.2Q16.75,52.56,21.2,57a4.67,4.67,0,0,1,.67.74,1.71,1.71,0,0,1,.07,1.9,1.64,1.64,0,0,1-1.62.82,2.1,2.1,0,0,1-1.41-.75L9.74,50.55a7.8,7.8,0,0,1-.66-.76,5.68,5.68,0,0,1,.47-7.51,1.82,1.82,0,0,0,.55-2.08A17.68,17.68,0,0,1,9.1,33a36.52,36.52,0,0,0,.13-5,4.27,4.27,0,0,0-4-4.19c-.68,0-1.13.22-1.18,1-.07,1-.14,1.94-.17,2.91-.09,3.17-.14,6.33-.24,9.5a22.89,22.89,0,0,0-.08,3.1c.3,2.68.66,5.37.84,8.07a13.23,13.23,0,0,0,4.15,9.24C11.44,60.32,14.19,63.21,17,66a12.65,12.65,0,0,1,3.65,6.71c.15.76.48,1,1.23,1,1.52-.09,3-.12,4.56-.14l10.42-.06c1.29,0,1.28,0,1.27-1.33Zm-7,7.22c-3.78.09-7.56,0-11.33.21a3,3,0,0,0-3.14,3.16c0,3.87,0,7.74.09,11.6a3.36,3.36,0,0,0,3.72,3.44c3.1-.22,6.21-.11,9.31-.16,3.29,0,6.58,0,9.87-.13a3.06,3.06,0,0,0,3.13-2.63,5.86,5.86,0,0,0,.08-1.45c-.22-3.5-.11-7-.15-10.5,0-2.38-1.18-3.54-3.54-3.54Z"/><path class="cls-1" d="M62.17,46.39a3.17,3.17,0,0,1-2.82-1.3c-1.13-1.49-2.27-1.88-4-.87-1.45.84-1.54.66-1.56,2.33A7,7,0,0,1,53.58,49a3.37,3.37,0,0,1-3.17,2.33c-1.58,0-3.17,0-4.75,0A3.41,3.41,0,0,1,42.33,48c0-.85,0-1.71,0-2.56a.73.73,0,0,0-.57-.81,15.49,15.49,0,0,1-2.7-1.11.67.67,0,0,0-.89.19c-.53.55-1.06,1.1-1.62,1.61a3.57,3.57,0,0,1-5.3-.07c-.95-.94-1.91-1.88-2.84-2.84a3.57,3.57,0,0,1-.12-5.1c.66-.76,1.84-1.3,1.94-2.22s-.71-1.77-1-2.7a1.17,1.17,0,0,0-1.44-1,16.85,16.85,0,0,1-2,0A3.41,3.41,0,0,1,22.39,28c0-1.52,0-3.05,0-4.57A3.43,3.43,0,0,1,25.81,20c.79,0,1.59,0,2.38,0a.86.86,0,0,0,.95-.64c.31-.86.64-1.71,1-2.54a.78.78,0,0,0-.2-1c-.54-.5-1.06-1-1.55-1.55a3.57,3.57,0,0,1,.06-5.3c.93-1,1.88-1.91,2.84-2.84a3.65,3.65,0,0,1,5.12-.12c.75.66,1.28,1.85,2.21,1.94s1.77-.71,2.7-1a1.16,1.16,0,0,0,1-1.44,16.85,16.85,0,0,1,0-2A3.43,3.43,0,0,1,45.77,0h4.58a3.44,3.44,0,0,1,3.42,3.35c0,.85,0,1.71,0,2.56a.75.75,0,0,0,.58.81c.88.34,1.75.68,2.61,1.07a.73.73,0,0,0,1-.16c.51-.53,1-1,1.56-1.55a3.63,3.63,0,0,1,5.37,0C65.8,7,66.73,8,67.64,8.9a3.57,3.57,0,0,1,.08,5.24c-.51.56-1,1.09-1.61,1.61a.77.77,0,0,0-.17,1.05,16,16,0,0,1,.77,1.75c.54,1.39.53,1.48,2.05,1.38,3.29-.24,5.28,1,5,4.95-.08,1,0,2.07,0,3.11a3.42,3.42,0,0,1-3.36,3.4c-.82,0-1.65,0-2.47,0a.85.85,0,0,0-.93.67c-.31.86-.65,1.71-1,2.54a.73.73,0,0,0,.16,1c.53.51,1,1,1.55,1.56a3.59,3.59,0,0,1,0,5.36c-.94,1-1.9,1.9-2.85,2.85A3.28,3.28,0,0,1,62.17,46.39Zm-16.35-1h0c0,.58,0,1.16,0,1.74s.24.81.82.8c.92,0,1.83,0,2.75,0,.59,0,.82-.23.81-.81,0-1.07,0-2.13,0-3.2A2,2,0,0,1,52,41.66a17.33,17.33,0,0,0,4.62-1.93,1.82,1.82,0,0,1,2.62.32c.81.79,1.61,1.58,2.39,2.39.35.36.64.38,1,0,.7-.72,1.41-1.43,2.14-2.13.39-.37.42-.67,0-1.06-.77-.73-1.52-1.5-2.27-2.26a1.9,1.9,0,0,1-.36-2.83A17.24,17.24,0,0,0,64,29.71a2,2,0,0,1,2.3-1.84c1,0,2.08,0,3.11,0,.61,0,.9-.19.88-.85a26,26,0,0,1,0-2.65c0-.69-.27-.91-.92-.89-1,0-2.07,0-3.11,0A2,2,0,0,1,64,21.68a17.6,17.6,0,0,0-1.93-4.61,1.82,1.82,0,0,1,.34-2.62c.76-.79,1.53-1.58,2.33-2.33.44-.41.42-.72,0-1.13-.71-.66-1.4-1.36-2.07-2.06a.62.62,0,0,0-1.06,0c-.71.75-1.46,1.48-2.19,2.2-1.07,1.06-1.68,1.16-3,.38A16.75,16.75,0,0,0,52.07,9.7a2,2,0,0,1-1.83-2.32c0-1.06,0-2.13,0-3.19,0-.54-.2-.78-.75-.77-.86,0-1.71.05-2.56,0s-1.11.21-1.07,1c.06,1,0,2.07,0,3.11a1.92,1.92,0,0,1-1.72,2.12,17.28,17.28,0,0,0-4.62,1.91,1.89,1.89,0,0,1-2.77-.37C36,10.48,35.26,9.76,34.55,9c-.42-.45-.75-.52-1.19,0-.64.69-1.31,1.36-2,2-.48.45-.42.77,0,1.19.76.71,1.48,1.46,2.21,2.2a1.92,1.92,0,0,1,.33,2.84,16.43,16.43,0,0,0-1.82,4.37c-.39,1.47-.91,1.88-2.45,1.91-1,0-2,0-3,0-.64,0-.87.25-.84.88,0,.85,0,1.7,0,2.55s.24,1,.95,1c1.07,0,2.13,0,3.2,0a1.91,1.91,0,0,1,2.11,1.73,17.79,17.79,0,0,0,2,4.7,1.8,1.8,0,0,1-.31,2.55c-.8.83-1.62,1.65-2.45,2.46a.58.58,0,0,0,0,1c.72.7,1.44,1.41,2.13,2.14.38.4.69.38,1.06,0,.78-.81,1.59-1.6,2.39-2.39a1.82,1.82,0,0,1,2.62-.32,16.6,16.6,0,0,0,4.8,2,1.83,1.83,0,0,1,1.56,1.78C45.87,44.11,45.82,44.75,45.82,45.39Z"/><path class="cls-1" d="M75.68,84.79a3,3,0,0,1-3-2.88,3,3,0,0,1,5.91,0A3,3,0,0,1,75.68,84.79Z"/><path class="cls-1" d="M20.39,79a2.92,2.92,0,0,1,3,2.83,3,3,0,0,1-5.9.08A2.92,2.92,0,0,1,20.39,79Z"/><path class="cls-1" d="M57.25,25.76a9.2,9.2,0,1,1-9-9.29A9.15,9.15,0,0,1,57.25,25.76ZM48,31.33a5.66,5.66,0,1,0-5.62-5.7A5.54,5.54,0,0,0,48,31.33Z"/></g></g></svg>