<svg xmlns="http://www.w3.org/2000/svg" viewBox="0 0 18.86 18.8"><defs><style>.cls-1{fill:#ffd284;}</style></defs><g id="Слой_2" data-name="Слой 2"><g id="Layer_1" data-name="Layer 1"><path class="cls-1" d="M16.4,13.05C15,11.89,13.67,11.5,12,12.7c-1.35,1-2.53.65-3.72-.56C7.7,11.56,7.17,11,6.65,10.33a2.56,2.56,0,0,1,0-3.72A1.81,1.81,0,0,0,6.88,4.4,25,25,0,0,0,4.67.89,1.52,1.52,0,0,0,2.18.47,5.1,5.1,0,0,0,.16,6a11.27,11.27,0,0,0,.89,2.34,21.56,21.56,0,0,0,10.07,9.74,6.91,6.91,0,0,0,3.26.75,4.46,4.46,0,0,0,4.2-2.22,1.46,1.46,0,0,0-.16-1.9A17.36,17.36,0,0,0,16.4,13.05Z"/></g></g></svg>