<svg xmlns="http://www.w3.org/2000/svg" viewBox="0 0 55.7 64.32"><defs><style>.cls-1{fill:#8e89c1;}</style></defs><g id="Слой_2" data-name="Слой 2"><g id="иконки"><path class="cls-1" d="M0,35.13V18.74C0,17.61.5,17.3,1.5,17.8c.4.2.82.37,1.2.61s.72.24,1-.3c.42-1,.92-1.9,1.4-2.84.36-.69.65-.81,1.38-.52,1.07.43,2.15.86,3.21,1.33.5.22.62.09.61-.43,0-1.46,0-2.92,0-4.39,0-.91.52-1.24,1.35-.85.46.22.92.43,1.36.69s.68.24.91-.28c.43-1,.93-1.9,1.41-2.84.37-.74.64-.84,1.41-.54L20,8.79c.39.17.54.1.53-.36,0-1.48,0-3,0-4.45,0-1,.51-1.3,1.42-.85.49.24,1,.47,1.46.74s.5.12.66-.21c.44-.94.92-1.86,1.38-2.79s.78-1,1.74-.66L52.41,10.57c.85.35,1.68.71,2.54,1a1,1,0,0,1,.75,1.1q0,15.33,0,30.66A4.37,4.37,0,0,1,54.74,46a9.88,9.88,0,0,1-5,3.76,1.65,1.65,0,0,1-1.29,0c-.83-.38-1.69-.7-2.53-1.06-.31-.14-.45-.09-.43.28s0,.57,0,.85a5.72,5.72,0,0,1-2,4.78,9.87,9.87,0,0,1-4.16,2.56,1.49,1.49,0,0,1-1.06,0c-.82-.36-1.65-.69-2.47-1.05-.41-.18-.66-.19-.58.37a.48.48,0,0,0,0,.12c.37,3.12-1.31,5.13-3.68,6.77-.21.15-.45.28-.67.41a4,4,0,0,1-3.94.28c-8.65-3.75-17.35-7.37-26-11A1.25,1.25,0,0,1,0,51.59C0,46.1,0,40.62,0,35.13ZM27.81,46.9c0-4.95,0-9.91,0-14.87a.94.94,0,0,0-.64-1c-8.28-3.83-16.63-7.49-25-11.14-.62-.27-.63-.27-.63.4q0,15.27,0,30.54a.8.8,0,0,0,.58.86l25,10.53c.7.3.7.29.7-.5Zm10.24-7.34c0-4.91,0-9.83,0-14.74a1,1,0,0,0-.71-1.15c-5-2.21-9.88-4.47-14.82-6.69-3.3-1.48-6.62-2.91-9.93-4.36-.8-.35-.8-.34-.8.54,0,1,0,2.08,0,3.11a.85.85,0,0,0,.62.95q10.92,4.46,21.81,8.93c1,.39,1,.44,1,1.49V48.85c0,1.52,0,3,0,4.57a.74.74,0,0,0,.55.82c.51.18,1,.42,1.51.63.79.33.79.33.79-.5Zm10.24-7.29c0-4.93,0-9.87,0-14.81a1.06,1.06,0,0,0-.75-1.13c-5.1-2.27-10.18-4.58-15.28-6.86-3.18-1.42-6.39-2.81-9.59-4.21C22.05,5,22,5,22,5.7c0,1.08,0,2.15,0,3.23a.89.89,0,0,0,.67,1l21.75,8.91c1,.4,1,.43,1,1.47q0,12.81,0,25.6c0,.56.13.91.7,1.08s1,.41,1.46.61c.69.29.69.29.69-.45Zm.86-17a11.19,11.19,0,0,0,3.93-1.93c.52-.45.51-.51-.12-.77L42.54,8.26Q35,5.16,27.45,2.05c-.51-.21-.77-.16-1,.36s-.59,1.25-.92,1.85c-.2.36-.18.54.24.73q11.43,5,22.86,10.06ZM28.63,29.87a2.49,2.49,0,0,0,.29-.07A10.9,10.9,0,0,0,32.5,28c.68-.55.68-.56-.11-.88L20.63,22.31c-4.58-1.89-9.17-3.76-13.74-5.66-.42-.17-.66-.16-.85.3-.29.67-.63,1.32-1,2-.22.38-.13.54.26.72q11.37,5,22.73,10C28.25,29.74,28.46,29.81,28.63,29.87ZM39,22.53a11.09,11.09,0,0,0,3.79-1.87c.56-.47.55-.53-.11-.8L29.46,14.41q-6.13-2.52-12.28-5.06c-.47-.19-.72-.16-.93.34-.28.65-.61,1.29-.95,1.91-.22.39-.12.54.27.71l22.8,10A1.22,1.22,0,0,0,39,22.53Z"/></g></g></svg>