<svg xmlns="http://www.w3.org/2000/svg" viewBox="0 0 61.09 53.29"><defs><style>.cls-1{fill:#8e89c1;}</style></defs><g id="Слой_2" data-name="Слой 2"><g id="иконки"><path class="cls-1" d="M52.39,13H8.54c-.92,0-.82-.11-.82.8,0,4.08,0,8.16,0,12.25,0,.49-.11.66-.63.65-1.18,0-2.36,0-3.53,0-.34,0-.46-.09-.45-.44q0-8.72,0-17.43c0-.37.14-.43.46-.42h48.7c0-.27-.19-.35-.32-.48C50.51,6.42,49.07,5,47.6,3.53c-.3-.3-.38-.47,0-.8.86-.81,1.68-1.65,2.5-2.5.26-.27.42-.33.72,0q5,5.07,10.08,10.09c.28.28.29.43,0,.72Q55.83,16,50.8,21.09c-.31.31-.45.23-.71,0-.83-.86-1.67-1.71-2.54-2.54-.29-.27-.28-.43,0-.71,1.45-1.42,2.88-2.86,4.32-4.3Z"/><path class="cls-1" d="M8.65,44.93c1.69,1.69,3.24,3.27,4.83,4.8.38.37.34.56,0,.9-.84.79-1.66,1.61-2.46,2.45-.28.31-.44.26-.71,0L.2,43c-.26-.26-.27-.4,0-.67q5.07-5.06,10.12-10.13c.29-.29.42-.23.67,0,.84.88,1.7,1.74,2.58,2.59.28.26.27.4,0,.66-1.46,1.44-2.91,2.9-4.36,4.35l-.4.44a1.07,1.07,0,0,0,.69.09q21.54,0,43.09,0c.9,0,.79.11.79-.82,0-4.09,0-8.17,0-12.25,0-.46.09-.64.6-.62,1.17,0,2.35,0,3.53,0,.36,0,.49.08.49.47,0,5.79,0,11.58,0,17.37,0,.54-.3.45-.61.45H8.65Z"/></g></g></svg>