<svg xmlns="http://www.w3.org/2000/svg" viewBox="0 0 49.77 64.39"><defs><style>.cls-1{fill:#8e89c1;}</style></defs><g id="Слой_2" data-name="Слой 2"><g id="иконки"><path class="cls-1" d="M0,34.72V7C0,5.65.56,5.12,1.91,5.12c3.37,0,6.74,0,10.11,0,.42,0,.63-.08.77-.54a6.54,6.54,0,0,1,12.49,0,.66.66,0,0,0,.77.54H47.93c1.31,0,1.83.52,1.83,1.85q0,19,0,38a2.27,2.27,0,0,1-.71,1.73q-8.52,8.49-17,17a2.19,2.19,0,0,1-1.67.69q-14.24,0-28.47,0A1.74,1.74,0,0,1,0,62.51C0,53.25,0,44,0,34.72Zm2.92,0q0,13,0,26c0,.5.08.68.65.68q12.52,0,25,0c.54,0,.67-.13.66-.67,0-5,0-10,0-15a1.71,1.71,0,0,1,1.9-1.87c5,.05,10,0,15.05,0,.5,0,.64-.12.64-.63q0-17.31,0-34.62c0-.52-.16-.62-.65-.62-6.58,0-13.16,0-19.75,0-.74,0-1.18.13-1.28.92a1.2,1.2,0,0,1-.23.56c-.36.45-.17.74.19,1.1C26.62,12,28.08,13.52,29.54,15a1.48,1.48,0,0,1,.38,1.63,1.32,1.32,0,0,1-1.16.93A1.62,1.62,0,0,1,27.35,17l-4.48-4.49a.51.51,0,0,0-.72-.13,6.5,6.5,0,0,1-9.38-3.83A.58.58,0,0,0,12.1,8c-2.83,0-5.65,0-8.48,0-.56,0-.69.14-.69.69Q3,21.74,2.94,34.75Zm41.64,12.1a.46.46,0,0,0-.13,0c-3.94,0-7.87,0-11.81,0-.5,0-.44.26-.44.57,0,3.79,0,7.59,0,11.38,0,.15-.08.33,0,.43ZM19,2.92A3.66,3.66,0,1,0,22.69,6.6,3.67,3.67,0,0,0,19,2.92Z"/><path class="cls-1" d="M24.89,29.25c-4.85,0-9.7,0-14.56,0a1.49,1.49,0,0,1-1.52-1,1.38,1.38,0,0,1,.4-1.55,1.62,1.62,0,0,1,1.24-.39q10,0,20,0h8.9a1.47,1.47,0,1,1,0,2.92C34.52,29.26,29.71,29.25,24.89,29.25Z"/><path class="cls-1" d="M24.83,35.11H39.45A1.53,1.53,0,0,1,41,36.2a1.51,1.51,0,0,1-.75,1.66,1.49,1.49,0,0,1-.76.17H10.27A1.53,1.53,0,0,1,8.7,36.57a1.55,1.55,0,0,1,1.62-1.46Z"/><path class="cls-1" d="M16.05,46.81H10.39a1.53,1.53,0,0,1-1.68-1.46,1.6,1.6,0,0,1,1.67-1.48c3.8,0,7.6,0,11.39,0a1.47,1.47,0,1,1,0,2.92Z"/><path class="cls-1" d="M13.91,52.67c1.19,0,2.39,0,3.59,0a1.46,1.46,0,1,1,0,2.91H10.28A1.55,1.55,0,0,1,8.7,54.14a1.53,1.53,0,0,1,1.61-1.47C11.51,52.66,12.71,52.67,13.91,52.67Z"/></g></g></svg>