<svg xmlns="http://www.w3.org/2000/svg" viewBox="0 0 44.87 44.87"><defs><style>.cls-1{fill:#ffd284;}</style></defs><g id="Слой_2" data-name="Слой 2"><g id="Layer_1" data-name="Layer 1"><path class="cls-1" d="M22.42,44.87A22.44,22.44,0,1,1,44.87,22.68,22.43,22.43,0,0,1,22.42,44.87Zm0-13.51c3,0,5.94,0,8.91,0a3.8,3.8,0,0,0,3.85-3.81q0-5.13,0-10.26a3.8,3.8,0,0,0-3.84-3.79H13.52a4.45,4.45,0,0,0-1.08.14,3.84,3.84,0,0,0-2.77,3.8c0,3.32,0,6.64,0,10a4.07,4.07,0,0,0,.07.85,3.8,3.8,0,0,0,3.8,3.1C16.51,31.37,19.47,31.36,22.44,31.36Z"/><path class="cls-1" d="M27.14,22,20,26.68c-.08-.24-.1-9,0-9.44C20.2,17.34,26.27,21.31,27.14,22Z"/></g></g></svg>